<?xml version="1.0" standalone="no"?>
<!DOCTYPE svg PUBLIC "-//W3C//DTD SVG 20010904//EN"
 "http://www.w3.org/TR/2001/REC-SVG-20010904/DTD/svg10.dtd">
<svg version="1.0" xmlns="http://www.w3.org/2000/svg"
 width="466.000000pt" height="351.000000pt" viewBox="0 0 466.000000 351.000000"
 preserveAspectRatio="xMidYMid meet">

<g transform="translate(0.000000,351.000000) scale(0.100000,-0.100000)"
fill="#000000" stroke="none">
<path d="M2124 3089 l-42 -10 -12 -78 -12 -79 -50 -21 c-28 -12 -55 -21 -61
-21 -5 0 -37 20 -72 44 l-62 45 -39 -26 c-21 -14 -41 -27 -43 -29 -1 -1 5 -37
15 -79 l18 -76 -45 -44 -44 -45 -76 18 -76 19 -27 -43 c-16 -26 -24 -49 -20
-56 4 -7 25 -36 45 -64 l38 -51 -22 -56 c-24 -62 -10 -55 -159 -83 -23 -5 -27
-11 -33 -55 -4 -28 -5 -52 -4 -53 2 -2 32 -20 67 -41 l62 -38 0 -61 0 -61 -65
-40 -66 -40 5 -49 c3 -27 7 -50 9 -53 2 -2 39 -10 81 -17 42 -7 78 -15 79 -17
1 -2 12 -28 24 -58 l22 -53 -38 -52 c-56 -77 -55 -74 -27 -117 15 -21 30 -39
34 -39 4 0 40 7 80 17 l72 17 40 -39 c45 -44 46 -53 25 -137 -18 -66 -15 -73
38 -101 l34 -19 63 45 63 44 56 -23 56 -23 14 -79 13 -79 50 -10 50 -10 39 60
c22 33 39 64 39 69 0 4 29 8 64 8 l65 0 42 -69 43 -68 50 11 51 11 12 74 c7
41 16 78 20 82 5 4 30 16 58 27 l50 20 61 -44 c34 -24 64 -44 68 -44 4 0 24
11 45 25 l38 26 -18 77 -18 77 43 44 44 44 77 -18 c42 -9 78 -15 79 -13 2 1
14 20 29 42 l25 38 -44 60 c-24 33 -44 64 -44 69 0 5 11 33 24 63 l24 54 65 7
c35 4 69 10 75 14 12 7 33 91 27 102 -3 4 -34 24 -70 45 -40 24 -63 44 -60 52
3 8 5 36 5 63 0 44 3 50 30 64 18 9 28 21 24 27 -4 7 -3 8 4 4 7 -4 26 1 43
11 30 17 31 20 24 68 -3 27 -11 53 -17 56 -5 4 -34 9 -63 13 -77 9 -84 13
-110 73 l-25 54 38 52 c21 29 42 58 46 65 4 7 -4 30 -20 56 l-27 43 -76 -18
-76 -18 -44 44 -44 44 11 53 c7 29 15 63 18 75 5 17 -3 28 -36 52 l-42 30 -51
-38 c-76 -55 -73 -54 -125 -35 -66 24 -69 28 -76 87 -12 88 -15 95 -49 102
-18 4 -40 9 -49 11 -13 4 -29 -13 -62 -64 l-44 -69 -59 -1 -58 -1 -45 69 c-25
39 -49 69 -55 69 -5 -1 -29 -5 -51 -10z m256 -603 c0 -2 -36 -24 -80 -50 -44
-25 -80 -47 -80 -49 0 -1 63 -3 141 -4 l140 -2 73 -40 c64 -36 121 -81 102
-81 -4 0 -39 18 -78 40 -39 22 -72 39 -73 38 -2 -2 27 -55 64 -118 l66 -115 3
-91 c3 -64 0 -99 -10 -115 -12 -22 -13 -16 -18 66 l-5 90 -65 -114 c-68 -120
-88 -139 -208 -200 -80 -41 -80 -17 0 27 43 24 79 46 82 50 2 4 -58 8 -134 8
l-139 1 -86 49 c-48 27 -91 57 -96 66 -5 10 -8 18 -6 18 2 0 39 -20 82 -45 43
-24 80 -43 82 -41 2 1 -26 53 -62 115 l-65 111 -2 108 c-3 141 15 174 22 40
l5 -97 67 117 67 118 88 52 c75 44 123 63 123 48z"/>
<path d="M2255 2272 c-48 -23 -69 -45 -90 -95 -50 -120 34 -247 164 -247 76 0
130 35 162 105 24 53 24 99 -2 153 -41 84 -150 123 -234 84z m144 -33 c49 -28
73 -63 79 -115 6 -53 -11 -96 -50 -129 -101 -85 -248 -17 -248 116 0 111 123
183 219 128z"/>
<path d="M1707 854 c-24 -13 -28 -21 -25 -51 2 -30 11 -42 48 -68 62 -43 59
-60 -7 -59 -45 2 -53 -1 -53 -16 0 -22 19 -30 69 -30 55 0 83 24 79 68 -3 36
-12 45 -84 88 -17 10 -17 13 -5 28 11 13 23 16 47 11 20 -3 35 -1 39 6 19 30
-64 48 -108 23z"/>
<path d="M2866 849 c-17 -13 -26 -30 -26 -48 0 -30 17 -50 68 -75 50 -26 40
-51 -21 -50 -43 0 -48 -2 -45 -20 2 -17 11 -22 46 -24 109 -8 134 89 36 135
-25 13 -34 23 -32 38 2 16 10 20 42 20 47 0 59 21 21 35 -39 15 -59 12 -89
-11z"/>
<path d="M1872 843 c2 -10 10 -19 18 -19 8 -1 21 -2 28 -3 9 -1 12 -27 12 -96
0 -95 0 -95 25 -95 25 0 25 0 25 94 l0 95 32 3 c21 2 32 9 34 21 2 15 -8 17
-88 17 -80 0 -89 -2 -86 -17z"/>
<path d="M2155 848 c-2 -7 -20 -58 -40 -113 -19 -55 -35 -101 -35 -102 0 -2
11 -3 24 -3 18 0 27 8 35 30 9 27 14 30 51 30 37 0 42 -3 51 -30 8 -22 17 -30
35 -30 13 0 24 3 23 8 0 4 -17 54 -38 112 -36 101 -39 105 -69 108 -20 2 -34
-2 -37 -10z m59 -90 c6 -26 4 -28 -24 -28 -34 0 -34 2 -8 70 10 24 10 24 18 5
4 -11 10 -32 14 -47z"/>
<path d="M2360 745 l0 -115 25 0 c23 0 25 4 25 45 0 32 4 45 14 45 8 0 26 -20
40 -45 21 -35 33 -45 53 -45 25 0 25 1 9 25 -52 80 -49 72 -27 94 27 27 27 65
1 91 -16 16 -33 20 -80 20 l-60 0 0 -115z m84 75 c44 -16 29 -60 -20 -60 -9 0
-14 11 -14 35 0 39 -1 39 34 25z"/>
<path d="M2650 856 c0 -2 -18 -54 -40 -115 l-39 -111 25 0 c19 0 28 7 35 30
10 27 15 30 54 30 40 0 44 -2 50 -30 5 -23 12 -30 31 -30 13 0 24 3 24 8 0 4
-17 55 -37 115 -38 106 -38 107 -70 107 -18 0 -33 -2 -33 -4z m59 -113 c1 -8
-11 -13 -28 -13 -32 0 -32 0 -4 80 3 10 10 3 18 -20 8 -19 14 -41 14 -47z"/>
<path d="M2300 510 c-23 -23 -24 -33 -10 -61 7 -12 20 -19 38 -18 20 1 22 2 7
6 -27 6 -44 30 -38 53 6 21 29 33 45 23 7 -3 8 -1 4 5 -10 17 -23 15 -46 -8z"/>
<path d="M3693 523 c-22 -8 -14 -39 13 -51 28 -14 24 -31 -9 -33 -18 -1 -18
-2 -4 -6 10 -3 25 1 34 8 13 12 12 16 -12 35 -28 22 -27 51 2 40 8 -3 11 -1 8
4 -7 11 -13 11 -32 3z"/>
<path d="M762 493 c-23 -65 -25 -70 -12 -50 6 9 20 17 30 17 10 0 24 -8 30
-17 10 -16 11 -16 5 2 -20 59 -28 75 -35 75 -4 0 -13 -12 -18 -27z m28 -8 c0
-8 -4 -15 -10 -15 -5 0 -10 7 -10 15 0 8 5 15 10 15 6 0 10 -7 10 -15z"/>
<path d="M961 473 c1 -53 6 -49 11 10 2 20 0 37 -4 37 -4 0 -8 -21 -7 -47z"/>
<path d="M1138 483 c5 -59 10 -63 11 -10 1 26 -3 47 -7 47 -4 0 -6 -17 -4 -37z"/>
<path d="M1300 475 c0 -43 1 -45 28 -44 23 2 23 2 5 6 -19 4 -22 10 -19 44 2
21 -1 39 -5 39 -5 0 -9 -20 -9 -45z"/>
<path d="M1481 473 l2 -48 6 39 6 40 25 -36 c28 -41 40 -34 38 22 l-1 35 -6
-40 -6 -40 -23 38 c-13 20 -28 37 -33 37 -5 0 -8 -21 -8 -47z"/>
<path d="M1692 478 c-2 -44 0 -48 22 -48 13 0 29 6 35 14 16 19 10 68 -9 74
-13 4 -13 3 -2 -11 20 -24 11 -61 -15 -65 -19 -3 -22 2 -26 40 l-4 43 -1 -47z"/>
<path d="M1902 493 c-23 -65 -25 -70 -12 -50 6 9 20 17 30 17 10 0 24 -8 30
-17 10 -16 11 -16 5 2 -20 59 -28 75 -35 75 -4 0 -13 -12 -18 -27z m28 -8 c0
-8 -4 -15 -10 -15 -5 0 -10 7 -10 15 0 8 5 15 10 15 6 0 10 -7 10 -15z"/>
<path d="M2081 473 l2 -48 6 40 6 40 25 -37 c14 -21 28 -38 31 -38 3 0 6 21 6
48 l1 47 -7 -40 -6 -40 -23 38 c-13 20 -28 37 -33 37 -5 0 -8 -21 -8 -47z"/>
<path d="M2482 478 c-2 -46 -1 -48 26 -47 22 1 23 2 5 6 -18 3 -23 13 -26 46
l-4 42 -1 -47z"/>
<path d="M2806 480 c-18 -45 -21 -64 -5 -37 5 9 17 17 26 17 9 0 22 -8 29 -17
12 -15 12 -13 3 15 -8 22 -14 30 -19 22 -4 -7 -13 -11 -20 -8 -9 3 -8 8 4 20
18 18 20 28 7 28 -5 0 -16 -18 -25 -40z"/>
<path d="M3008 483 c5 -59 10 -63 11 -10 1 26 -3 47 -7 47 -4 0 -6 -17 -4 -37z"/>
<path d="M3310 475 c0 -43 1 -45 28 -44 23 2 23 2 5 6 -19 4 -22 10 -19 44 2
21 -1 39 -5 39 -5 0 -9 -20 -9 -45z"/>
<path d="M3502 493 c-23 -65 -25 -70 -12 -50 6 9 20 17 30 17 10 0 24 -8 30
-17 10 -16 11 -16 5 2 -20 59 -28 75 -35 75 -4 0 -13 -12 -18 -27z m28 -8 c0
-8 -4 -15 -10 -15 -5 0 -10 7 -10 15 0 8 5 15 10 15 6 0 10 -7 10 -15z"/>
<path d="M3860 475 c0 -43 1 -45 28 -44 23 2 23 2 5 6 -19 4 -22 10 -19 44 2
21 -1 39 -5 39 -5 0 -9 -20 -9 -45z"/>
</g>
</svg>
